<svg xmlns="http://www.w3.org/2000/svg" width="560" height="330" viewBox="0 0 560 330"><rect width="560" height="330" fill="#1a1a1a"/><text x="140" y="24" fill="#ddd" font-family="sans-serif" font-size="13" text-anchor="middle">STUDIO PREVIEW (true rotation)</text><g transform="translate(20,36)"><clipPath id="c0"><circle cx="120" cy="120" r="120"/></clipPath><g clip-path="url(#c0)"><rect width="240" height="240" fill="#000"/><g fill="#cfe8ff"><rect x="45" y="76" width="1" height="1"/><rect x="43" y="77" width="4" height="1"/><rect x="42" y="78" width="6" height="1"/><rect x="41" y="79" width="7" height="1"/><rect x="39" y="80" width="10" height="1"/><rect x="38" y="81" width="12" height="1"/><rect x="37" y="82" width="13" height="1"/><rect x="36" y="83" width="15" height="1"/><rect x="35" y="84" width="17" height="1"/><rect x="34" y="85" width="18" height="1"/><rect x="33" y="86" width="20" height="1"/><rect x="32" y="87" width="22" height="1"/><rect x="32" y="88" width="23" height="1"/><rect x="31" y="89" width="24" height="1"/><rect x="30" y="90" width="26" height="1"/><rect x="30" y="91" width="27" height="1"/><rect x="29" y="92" width="28" height="1"/><rect x="28" y="93" width="30" height="1"/><rect x="28" y="94" width="31" height="1"/><rect x="27" y="95" width="32" height="1"/><rect x="27" y="96" width="33" height="1"/><rect x="26" y="97" width="35" height="1"/><rect x="26" y="98" width="36" height="1"/><rect x="25" y="99" width="37" height="1"/><rect x="25" y="100" width="38" height="1"/><rect x="25" y="101" width="39" height="1"/><rect x="24" y="102" width="41" height="1"/><rect x="24" y="103" width="41" height="1"/><rect x="24" y="104" width="42" height="1"/><rect x="23" y="105" width="44" height="1"/><rect x="23" y="106" width="45" height="1"/><rect x="23" y="107" width="45" height="1"/><rect x="23" y="108" width="46" height="1"/><rect x="22" y="109" width="48" height="1"/><rect x="22" y="110" width="49" height="1"/><rect x="22" y="111" width="50" height="1"/><rect x="22" y="112" width="50" height="1"/><rect x="22" y="113" width="51" height="1"/><rect x="22" y="114" width="52" height="1"/><rect x="22" y="115" width="53" height="1"/><rect x="22" y="116" width="54" height="1"/><rect x="22" y="117" width="55" height="1"/><rect x="22" y="118" width="55" height="1"/><rect x="22" y="119" width="56" height="1"/><rect x="22" y="120" width="57" height="1"/><rect x="22" y="121" width="58" height="1"/><rect x="22" y="122" width="59" height="1"/><rect x="22" y="123" width="60" height="1"/><rect x="22" y="124" width="61" height="1"/><rect x="22" y="125" width="61" height="1"/><rect x="22" y="126" width="62" height="1"/><rect x="22" y="127" width="63" height="1"/><rect x="23" y="128" width="63" height="1"/><rect x="23" y="129" width="64" height="1"/><rect x="23" y="130" width="65" height="1"/><rect x="23" y="131" width="66" height="1"/><rect x="24" y="132" width="66" height="1"/><rect x="24" y="133" width="67" height="1"/><rect x="24" y="134" width="68" height="1"/><rect x="25" y="135" width="68" height="1"/><rect x="25" y="136" width="69" height="1"/><rect x="25" y="137" width="70" height="1"/><rect x="26" y="138" width="70" height="1"/><rect x="26" y="139" width="71" height="1"/><rect x="27" y="140" width="71" height="1"/><rect x="27" y="141" width="72" height="1"/><rect x="27" y="142" width="73" height="1"/><rect x="28" y="143" width="73" height="1"/><rect x="29" y="144" width="73" height="1"/><rect x="29" y="145" width="74" height="1"/><rect x="30" y="146" width="74" height="1"/><rect x="30" y="147" width="75" height="1"/><rect x="31" y="148" width="75" height="1"/><rect x="32" y="149" width="75" height="1"/><rect x="32" y="150" width="76" height="1"/><rect x="33" y="151" width="76" height="1"/><rect x="34" y="152" width="76" height="1"/><rect x="35" y="153" width="76" height="1"/><rect x="36" y="154" width="76" height="1"/><rect x="37" y="155" width="74" height="1"/><rect x="38" y="156" width="72" height="1"/><rect x="39" y="157" width="70" height="1"/><rect x="40" y="158" width="68" height="1"/><rect x="41" y="159" width="66" height="1"/><rect x="42" y="160" width="64" height="1"/><rect x="44" y="161" width="60" height="1"/><rect x="45" y="162" width="58" height="1"/><rect x="47" y="163" width="55" height="1"/><rect x="48" y="164" width="52" height="1"/><rect x="50" y="165" width="48" height="1"/><rect x="52" y="166" width="45" height="1"/><rect x="54" y="167" width="40" height="1"/><rect x="57" y="168" width="35" height="1"/><rect x="60" y="169" width="29" height="1"/><rect x="64" y="170" width="21" height="1"/><rect x="70" y="171" width="9" height="1"/><rect x="195" y="76" width="1" height="1"/><rect x="194" y="77" width="4" height="1"/><rect x="193" y="78" width="6" height="1"/><rect x="193" y="79" width="7" height="1"/><rect x="192" y="80" width="10" height="1"/><rect x="191" y="81" width="12" height="1"/><rect x="191" y="82" width="13" height="1"/><rect x="190" y="83" width="15" height="1"/><rect x="189" y="84" width="17" height="1"/><rect x="189" y="85" width="18" height="1"/><rect x="188" y="86" width="20" height="1"/><rect x="187" y="87" width="22" height="1"/><rect x="186" y="88" width="23" height="1"/><rect x="186" y="89" width="24" height="1"/><rect x="185" y="90" width="26" height="1"/><rect x="184" y="91" width="27" height="1"/><rect x="184" y="92" width="28" height="1"/><rect x="183" y="93" width="30" height="1"/><rect x="182" y="94" width="31" height="1"/><rect x="182" y="95" width="32" height="1"/><rect x="181" y="96" width="33" height="1"/><rect x="180" y="97" width="35" height="1"/><rect x="179" y="98" width="36" height="1"/><rect x="179" y="99" width="37" height="1"/><rect x="178" y="100" width="38" height="1"/><rect x="177" y="101" width="39" height="1"/><rect x="176" y="102" width="41" height="1"/><rect x="176" y="103" width="41" height="1"/><rect x="175" y="104" width="42" height="1"/><rect x="174" y="105" width="44" height="1"/><rect x="173" y="106" width="45" height="1"/><rect x="173" y="107" width="45" height="1"/><rect x="172" y="108" width="46" height="1"/><rect x="171" y="109" width="48" height="1"/><rect x="170" y="110" width="49" height="1"/><rect x="169" y="111" width="50" height="1"/><rect x="169" y="112" width="50" height="1"/><rect x="168" y="113" width="51" height="1"/><rect x="167" y="114" width="52" height="1"/><rect x="166" y="115" width="53" height="1"/><rect x="165" y="116" width="54" height="1"/><rect x="164" y="117" width="55" height="1"/><rect x="164" y="118" width="55" height="1"/><rect x="163" y="119" width="56" height="1"/><rect x="162" y="120" width="57" height="1"/><rect x="161" y="121" width="58" height="1"/><rect x="160" y="122" width="59" height="1"/><rect x="159" y="123" width="60" height="1"/><rect x="158" y="124" width="61" height="1"/><rect x="158" y="125" width="61" height="1"/><rect x="157" y="126" width="62" height="1"/><rect x="156" y="127" width="63" height="1"/><rect x="155" y="128" width="63" height="1"/><rect x="154" y="129" width="64" height="1"/><rect x="153" y="130" width="65" height="1"/><rect x="152" y="131" width="66" height="1"/><rect x="151" y="132" width="66" height="1"/><rect x="150" y="133" width="67" height="1"/><rect x="149" y="134" width="68" height="1"/><rect x="148" y="135" width="68" height="1"/><rect x="147" y="136" width="69" height="1"/><rect x="146" y="137" width="70" height="1"/><rect x="145" y="138" width="70" height="1"/><rect x="144" y="139" width="71" height="1"/><rect x="143" y="140" width="71" height="1"/><rect x="142" y="141" width="72" height="1"/><rect x="141" y="142" width="73" height="1"/><rect x="140" y="143" width="73" height="1"/><rect x="139" y="144" width="73" height="1"/><rect x="138" y="145" width="74" height="1"/><rect x="137" y="146" width="74" height="1"/><rect x="136" y="147" width="75" height="1"/><rect x="135" y="148" width="75" height="1"/><rect x="134" y="149" width="75" height="1"/><rect x="133" y="150" width="76" height="1"/><rect x="132" y="151" width="76" height="1"/><rect x="131" y="152" width="76" height="1"/><rect x="130" y="153" width="76" height="1"/><rect x="129" y="154" width="76" height="1"/><rect x="130" y="155" width="74" height="1"/><rect x="131" y="156" width="72" height="1"/><rect x="132" y="157" width="70" height="1"/><rect x="133" y="158" width="68" height="1"/><rect x="134" y="159" width="66" height="1"/><rect x="135" y="160" width="64" height="1"/><rect x="137" y="161" width="60" height="1"/><rect x="138" y="162" width="58" height="1"/><rect x="139" y="163" width="55" height="1"/><rect x="141" y="164" width="52" height="1"/><rect x="143" y="165" width="48" height="1"/><rect x="144" y="166" width="45" height="1"/><rect x="147" y="167" width="40" height="1"/><rect x="149" y="168" width="35" height="1"/><rect x="152" y="169" width="29" height="1"/><rect x="156" y="170" width="21" height="1"/><rect x="162" y="171" width="9" height="1"/></g></g><circle cx="120" cy="120" r="120" fill="none" stroke="#2f6ea8" stroke-width="3"/></g><text x="420" y="24" fill="#ddd" font-family="sans-serif" font-size="13" text-anchor="middle">FIRMWARE (baked, what eyes.h draws)</text><g transform="translate(300,36)"><clipPath id="c1"><circle cx="120" cy="120" r="120"/></clipPath><g clip-path="url(#c1)"><rect width="240" height="240" fill="#000"/><g fill="#cfe8ff"><rect x="44" y="78" width="3" height="1"/><rect x="43" y="79" width="5" height="1"/><rect x="41" y="80" width="7" height="1"/><rect x="40" y="81" width="9" height="1"/><rect x="39" y="82" width="11" height="1"/><rect x="38" y="83" width="13" height="1"/><rect x="36" y="84" width="16" height="1"/><rect x="35" y="85" width="17" height="1"/><rect x="34" y="86" width="19" height="1"/><rect x="33" y="87" width="21" height="1"/><rect x="33" y="88" width="22" height="1"/><rect x="32" y="89" width="24" height="1"/><rect x="31" y="90" width="25" height="1"/><rect x="30" y="91" width="27" height="1"/><rect x="29" y="92" width="29" height="1"/><rect x="29" y="93" width="30" height="1"/><rect x="28" y="94" width="32" height="1"/><rect x="27" y="95" width="34" height="1"/><rect x="27" y="96" width="34" height="1"/><rect x="26" y="97" width="36" height="1"/><rect x="26" y="98" width="37" height="1"/><rect x="25" y="99" width="39" height="1"/><rect x="25" y="100" width="40" height="1"/><rect x="24" y="101" width="41" height="1"/><rect x="24" y="102" width="42" height="1"/><rect x="24" y="103" width="43" height="1"/><rect x="23" y="104" width="45" height="1"/><rect x="23" y="105" width="46" height="1"/><rect x="23" y="106" width="47" height="1"/><rect x="22" y="107" width="48" height="1"/><rect x="22" y="108" width="49" height="1"/><rect x="22" y="109" width="50" height="1"/><rect x="22" y="110" width="51" height="1"/><rect x="21" y="111" width="53" height="1"/><rect x="21" y="112" width="54" height="1"/><rect x="21" y="113" width="54" height="1"/><rect x="21" y="114" width="55" height="1"/><rect x="21" y="115" width="56" height="1"/><rect x="21" y="116" width="57" height="1"/><rect x="21" y="117" width="58" height="1"/><rect x="21" y="118" width="59" height="1"/><rect x="21" y="119" width="60" height="1"/><rect x="20" y="120" width="61" height="1"/><rect x="21" y="121" width="61" height="1"/><rect x="21" y="122" width="62" height="1"/><rect x="21" y="123" width="63" height="1"/><rect x="21" y="124" width="64" height="1"/><rect x="21" y="125" width="65" height="1"/><rect x="21" y="126" width="66" height="1"/><rect x="21" y="127" width="66" height="1"/><rect x="21" y="128" width="67" height="1"/><rect x="21" y="129" width="68" height="1"/><rect x="22" y="130" width="68" height="1"/><rect x="22" y="131" width="69" height="1"/><rect x="22" y="132" width="70" height="1"/><rect x="22" y="133" width="71" height="1"/><rect x="23" y="134" width="71" height="1"/><rect x="23" y="135" width="71" height="1"/><rect x="23" y="136" width="72" height="1"/><rect x="24" y="137" width="72" height="1"/><rect x="24" y="138" width="73" height="1"/><rect x="24" y="139" width="74" height="1"/><rect x="25" y="140" width="74" height="1"/><rect x="25" y="141" width="75" height="1"/><rect x="26" y="142" width="75" height="1"/><rect x="26" y="143" width="76" height="1"/><rect x="27" y="144" width="76" height="1"/><rect x="27" y="145" width="76" height="1"/><rect x="28" y="146" width="76" height="1"/><rect x="29" y="147" width="76" height="1"/><rect x="29" y="148" width="77" height="1"/><rect x="30" y="149" width="77" height="1"/><rect x="31" y="150" width="77" height="1"/><rect x="32" y="151" width="77" height="1"/><rect x="33" y="152" width="77" height="1"/><rect x="33" y="153" width="78" height="1"/><rect x="34" y="154" width="77" height="1"/><rect x="35" y="155" width="75" height="1"/><rect x="36" y="156" width="73" height="1"/><rect x="38" y="157" width="69" height="1"/><rect x="39" y="158" width="67" height="1"/><rect x="40" y="159" width="65" height="1"/><rect x="41" y="160" width="63" height="1"/><rect x="43" y="161" width="59" height="1"/><rect x="44" y="162" width="57" height="1"/><rect x="46" y="163" width="53" height="1"/><rect x="48" y="164" width="49" height="1"/><rect x="50" y="165" width="45" height="1"/><rect x="52" y="166" width="41" height="1"/><rect x="55" y="167" width="35" height="1"/><rect x="58" y="168" width="29" height="1"/><rect x="62" y="169" width="21" height="1"/><rect x="72" y="170" width="1" height="1"/><rect x="194" y="78" width="3" height="1"/><rect x="193" y="79" width="5" height="1"/><rect x="193" y="80" width="7" height="1"/><rect x="192" y="81" width="9" height="1"/><rect x="191" y="82" width="11" height="1"/><rect x="190" y="83" width="13" height="1"/><rect x="189" y="84" width="16" height="1"/><rect x="189" y="85" width="17" height="1"/><rect x="188" y="86" width="19" height="1"/><rect x="187" y="87" width="21" height="1"/><rect x="186" y="88" width="22" height="1"/><rect x="185" y="89" width="24" height="1"/><rect x="185" y="90" width="25" height="1"/><rect x="184" y="91" width="27" height="1"/><rect x="183" y="92" width="29" height="1"/><rect x="182" y="93" width="30" height="1"/><rect x="181" y="94" width="32" height="1"/><rect x="180" y="95" width="34" height="1"/><rect x="180" y="96" width="34" height="1"/><rect x="179" y="97" width="36" height="1"/><rect x="178" y="98" width="37" height="1"/><rect x="177" y="99" width="39" height="1"/><rect x="176" y="100" width="40" height="1"/><rect x="176" y="101" width="41" height="1"/><rect x="175" y="102" width="42" height="1"/><rect x="174" y="103" width="43" height="1"/><rect x="173" y="104" width="45" height="1"/><rect x="172" y="105" width="46" height="1"/><rect x="171" y="106" width="47" height="1"/><rect x="171" y="107" width="48" height="1"/><rect x="170" y="108" width="49" height="1"/><rect x="169" y="109" width="50" height="1"/><rect x="168" y="110" width="51" height="1"/><rect x="167" y="111" width="53" height="1"/><rect x="166" y="112" width="54" height="1"/><rect x="166" y="113" width="54" height="1"/><rect x="165" y="114" width="55" height="1"/><rect x="164" y="115" width="56" height="1"/><rect x="163" y="116" width="57" height="1"/><rect x="162" y="117" width="58" height="1"/><rect x="161" y="118" width="59" height="1"/><rect x="160" y="119" width="60" height="1"/><rect x="160" y="120" width="61" height="1"/><rect x="159" y="121" width="61" height="1"/><rect x="158" y="122" width="62" height="1"/><rect x="157" y="123" width="63" height="1"/><rect x="156" y="124" width="64" height="1"/><rect x="155" y="125" width="65" height="1"/><rect x="154" y="126" width="66" height="1"/><rect x="154" y="127" width="66" height="1"/><rect x="153" y="128" width="67" height="1"/><rect x="152" y="129" width="68" height="1"/><rect x="151" y="130" width="68" height="1"/><rect x="150" y="131" width="69" height="1"/><rect x="149" y="132" width="70" height="1"/><rect x="148" y="133" width="71" height="1"/><rect x="147" y="134" width="71" height="1"/><rect x="147" y="135" width="71" height="1"/><rect x="146" y="136" width="72" height="1"/><rect x="145" y="137" width="72" height="1"/><rect x="144" y="138" width="73" height="1"/><rect x="143" y="139" width="74" height="1"/><rect x="142" y="140" width="74" height="1"/><rect x="141" y="141" width="75" height="1"/><rect x="140" y="142" width="75" height="1"/><rect x="139" y="143" width="76" height="1"/><rect x="138" y="144" width="76" height="1"/><rect x="138" y="145" width="76" height="1"/><rect x="137" y="146" width="76" height="1"/><rect x="136" y="147" width="76" height="1"/><rect x="135" y="148" width="77" height="1"/><rect x="134" y="149" width="77" height="1"/><rect x="133" y="150" width="77" height="1"/><rect x="132" y="151" width="77" height="1"/><rect x="131" y="152" width="77" height="1"/><rect x="130" y="153" width="78" height="1"/><rect x="130" y="154" width="77" height="1"/><rect x="131" y="155" width="75" height="1"/><rect x="132" y="156" width="73" height="1"/><rect x="134" y="157" width="69" height="1"/><rect x="135" y="158" width="67" height="1"/><rect x="136" y="159" width="65" height="1"/><rect x="137" y="160" width="63" height="1"/><rect x="139" y="161" width="59" height="1"/><rect x="140" y="162" width="57" height="1"/><rect x="142" y="163" width="53" height="1"/><rect x="144" y="164" width="49" height="1"/><rect x="146" y="165" width="45" height="1"/><rect x="148" y="166" width="41" height="1"/><rect x="151" y="167" width="35" height="1"/><rect x="154" y="168" width="29" height="1"/><rect x="158" y="169" width="21" height="1"/><rect x="168" y="170" width="1" height="1"/></g></g><circle cx="120" cy="120" r="120" fill="none" stroke="#2f6ea8" stroke-width="3"/></g><text x="280" y="322" fill="#888" font-family="sans-serif" font-size="11" text-anchor="middle">Idle keyframe 0 — rot 50, 104x100, radius 130, Disable Eyelid, upper lid 40%</text></svg>